<?xml version="1.0" standalone="no"?>
<!DOCTYPE svg PUBLIC "-//W3C//DTD SVG 20010904//EN"
 "http://www.w3.org/TR/2001/REC-SVG-20010904/DTD/svg10.dtd">
<svg version="1.0" xmlns="http://www.w3.org/2000/svg"
 width="286.000000pt" height="280.000000pt" viewBox="0 0 286.000000 280.000000"
 preserveAspectRatio="xMidYMid meet">

<g transform="translate(0.000000,280.000000) scale(0.100000,-0.100000)"
fill="#000000" stroke="none">
<path d="M1336 2769 c-491 -49 -922 -355 -1130 -800 -143 -307 -169 -672 -70
-999 49 -161 182 -407 234 -433 13 -7 39 -37 57 -69 40 -68 136 -158 257 -239
152 -102 290 -163 464 -205 100 -24 115 -25 351 -22 242 4 248 5 350 36 57 17
137 47 176 67 39 19 76 35 82 35 20 0 186 111 264 175 247 207 418 508 475
840 21 115 14 417 -10 515 -73 290 -191 507 -381 696 -296 294 -713 444 -1119
403z m38 -101 c-27 -47 -106 -142 -158 -191 -201 -190 -404 -297 -668 -351
-78 -16 -148 -21 -148 -10 0 12 91 122 151 183 192 194 444 322 724 366 106
17 107 17 99 3z m351 -14 c239 -45 468 -166 648 -342 75 -73 167 -182 167
-198 0 -11 -129 4 -219 27 -162 41 -320 116 -463 221 -73 53 -252 236 -281
287 l-18 31 43 -5 c24 -4 79 -13 123 -21z m-216 -116 c17 -46 38 -105 46 -133
60 -207 59 -502 -1 -705 -26 -88 -75 -210 -84 -210 -12 0 -68 149 -97 260 -47
178 -43 441 8 638 24 88 78 232 89 232 4 0 21 -37 39 -82z m-242 -215 c-27
-124 -27 -411 0 -535 l19 -86 -76 62 c-87 72 -146 113 -233 163 -64 36 -229
106 -282 119 -27 7 -23 9 54 35 168 57 358 167 481 278 30 28 55 50 56 51 0 0
-9 -39 -19 -87z m621 -98 c89 -57 211 -115 309 -146 l73 -23 -91 -32 c-161
-58 -336 -157 -430 -244 -24 -23 -55 -50 -69 -60 l-26 -18 18 86 c35 176 34
370 -5 558 l-13 62 80 -68 c45 -37 114 -89 154 -115z m-1327 -245 c303 -62
586 -238 771 -480 48 -62 49 -65 26 -69 -24 -3 -67 5 -223 40 -181 42 -419
178 -572 327 -72 70 -163 179 -163 195 0 12 60 7 161 -13z m1979 13 c0 -14
-88 -121 -151 -184 -158 -158 -369 -280 -584 -337 -87 -22 -234 -46 -241 -39
-9 8 112 151 188 224 169 159 389 274 623 323 92 19 165 25 165 13z m-2165
-218 c35 -97 40 -123 55 -288 17 -193 -16 -406 -90 -594 -18 -46 -36 -81 -40
-78 -4 2 -15 26 -25 52 -10 26 -26 66 -36 88 -38 85 -69 273 -69 425 0 168 42
373 106 515 l27 60 19 -45 c11 -25 34 -85 53 -135z m2299 96 c14 -36 32 -72
40 -80 7 -9 16 -41 20 -71 3 -30 12 -98 21 -150 26 -167 17 -341 -26 -515 -20
-76 -73 -221 -89 -238 -4 -5 -22 28 -39 73 -127 329 -128 651 -1 978 18 46 36
80 40 75 5 -4 20 -37 34 -72z m-1973 -307 c90 -59 230 -127 317 -155 39 -13
72 -25 72 -28 0 -4 -33 -17 -73 -30 -75 -24 -222 -94 -273 -128 -16 -11 -51
-35 -79 -53 -27 -18 -78 -58 -112 -88 -35 -29 -63 -50 -63 -45 0 4 8 42 17 83
24 105 24 415 0 520 -9 41 -17 78 -17 83 0 4 33 -21 73 -54 39 -34 102 -81
138 -105z m1732 75 c-25 -119 -25 -401 0 -518 10 -46 16 -85 14 -87 -2 -2 -42
29 -88 69 -138 118 -344 230 -481 261 -45 10 -33 23 45 46 143 43 345 162 482
283 22 19 41 34 43 32 2 -1 -5 -40 -15 -86z m-1057 -317 c-68 -111 -217 -260
-343 -344 -130 -87 -282 -155 -420 -186 -103 -24 -213 -38 -213 -27 0 16 85
121 151 187 153 152 375 281 584 337 124 33 252 51 241 33z m380 -22 c304 -70
572 -245 758 -493 16 -21 26 -41 22 -44 -10 -11 -162 14 -261 43 -113 32 -268
105 -370 174 -117 79 -285 247 -339 338 -10 17 70 9 190 -18z m-250 -102 c89
-236 89 -237 88 -493 0 -156 -4 -206 -21 -280 -22 -95 -91 -285 -103 -285 -9
0 -64 139 -84 215 -40 151 -46 198 -46 358 0 145 3 174 29 277 31 123 87 280
101 280 4 0 21 -33 36 -72z m-238 -225 c-28 -137 -33 -298 -14 -438 9 -66 20
-134 25 -152 9 -31 6 -29 -78 41 -145 120 -287 200 -454 256 l-81 27 69 21
c155 47 340 154 500 289 27 23 50 43 51 43 0 0 -8 -39 -18 -87z m515 -21 c106
-88 317 -197 450 -233 l42 -11 -105 -37 c-160 -57 -333 -158 -440 -256 -81
-75 -80 -75 -65 -8 40 173 43 387 7 565 l-18 86 38 -31 c21 -18 62 -51 91 -75z
m-1234 -317 c296 -57 583 -229 762 -459 38 -49 68 -91 65 -93 -3 -3 -38 0 -78
7 -234 38 -425 115 -588 235 -102 76 -310 288 -310 316 0 13 58 11 149 -6z
m1991 9 c0 -15 -96 -127 -171 -200 -167 -161 -358 -268 -576 -323 -77 -19
-224 -43 -230 -37 -7 7 92 129 156 193 184 185 411 306 671 358 69 14 150 19
150 9z"/>
</g>
</svg>
