<?xml version="1.0" standalone="no"?>
<!DOCTYPE svg PUBLIC "-//W3C//DTD SVG 20010904//EN" "http://www.w3.org/TR/2001/REC-SVG-20010904/DTD/svg10.dtd">
<svg version="1.0" xmlns="http://www.w3.org/2000/svg" width="380.000000pt" height="380.000000pt"
    viewBox="0 0 380.000000 380.000000" preserveAspectRatio="xMidYMid meet">

    <g transform="translate(0.000000,380.000000) scale(0.100000,-0.100000)" fill="#000000" stroke="none">
        <path d="M1772 3289 c-629 -58 -1139 -532 -1248 -1159 -22 -125 -22 -336 0
-460 98 -556 506 -994 1051 -1126 744 -179 1501 284 1680 1028 114 474 -26
971 -371 1314 -294 293 -702 441 -1112 403z m32 -101 c-43 -74 -192 -232 -284
-301 -155 -117 -339 -199 -542 -241 -78 -16 -148 -21 -148 -10 0 3 20 31 44
62 203 261 499 435 831 487 106 17 107 17 99 3z m356 -15 c238 -47 465 -167
643 -341 75 -73 167 -182 167 -198 0 -11 -129 4 -219 27 -219 55 -421 167
-580 322 -69 67 -154 165 -172 198 -10 20 -9 20 38 14 26 -4 82 -14 123 -22z
m-221 -115 c17 -46 38 -105 46 -133 60 -207 59 -502 -1 -705 -26 -88 -75 -210
-84 -210 -10 0 -59 125 -84 210 -61 212 -61 493 1 710 21 77 74 210 83 210 4
0 21 -37 39 -82z m-242 -215 c-27 -125 -27 -412 0 -534 l19 -86 -71 59 c-135
114 -289 202 -457 263 l-88 31 73 23 c159 51 363 168 487 281 30 27 55 50 56
50 0 0 -8 -39 -19 -87z m611 -90 c95 -63 216 -121 319 -154 l73 -23 -88 -31
c-190 -69 -314 -141 -479 -282 l-49 -41 18 85 c35 174 33 375 -5 559 l-13 61
71 -60 c38 -33 107 -84 153 -114z m-1317 -253 c242 -49 459 -163 637 -334 81
-77 187 -204 178 -213 -7 -7 -156 17 -236 38 -281 74 -537 246 -713 480 -15
20 -27 39 -27 42 0 12 61 7 161 -13z m1979 13 c0 -3 -12 -22 -27 -42 -176
-234 -431 -406 -713 -480 -82 -22 -229 -45 -236 -38 -9 8 112 151 188 224 169
159 389 274 623 323 92 19 165 25 165 13z m-2166 -223 c41 -128 58 -244 59
-385 0 -188 -37 -369 -107 -526 l-24 -54 -22 50 c-77 177 -105 316 -105 525 0
209 28 348 105 525 l22 50 24 -54 c13 -29 35 -88 48 -131z m2305 88 c121 -305
121 -651 0 -956 -17 -42 -34 -81 -38 -85 -11 -11 -68 139 -97 251 -66 260 -47
535 56 800 18 46 36 80 40 75 5 -4 22 -43 39 -85z m-1978 -294 c90 -59 230
-127 317 -155 39 -13 72 -25 72 -28 0 -4 -33 -17 -73 -30 -158 -52 -334 -154
-464 -268 -35 -30 -63 -51 -63 -46 0 4 8 42 17 83 24 105 24 415 0 520 -9 41
-17 78 -17 83 0 4 33 -21 73 -54 39 -34 102 -81 138 -105z m1734 80 c-34 -159
-28 -444 12 -593 5 -19 -8 -12 -68 39 -135 115 -305 212 -456 261 -40 13 -73
26 -73 30 0 3 33 15 73 28 148 48 347 164 482 284 22 19 41 34 43 32 2 -2 -4
-38 -13 -81z m-1061 -326 c-24 -41 -113 -144 -182 -210 -187 -179 -444 -304
-697 -339 -47 -7 -88 -9 -92 -6 -9 9 66 105 145 185 196 198 484 341 757 375
64 8 76 7 69 -5z m382 -18 c242 -56 466 -179 636 -352 80 -81 154 -176 144
-185 -4 -4 -44 -2 -89 5 -261 38 -524 168 -715 355 -64 63 -142 154 -166 195
-10 17 70 9 190 -18z m-248 -107 c17 -43 37 -103 46 -133 60 -203 61 -498 1
-705 -22 -77 -77 -215 -85 -215 -11 0 -65 144 -89 232 -51 197 -55 458 -8 638
29 110 85 260 97 260 5 0 22 -35 38 -77z m-240 -220 c-28 -137 -33 -298 -14
-438 9 -66 20 -135 25 -153 10 -32 9 -32 -62 29 -137 119 -312 218 -475 272
l-74 23 82 27 c158 52 338 156 471 271 35 30 64 56 65 56 0 0 -8 -39 -18 -87z
m525 -31 c105 -82 314 -188 440 -223 l42 -12 -80 -27 c-173 -58 -335 -150
-472 -268 -70 -61 -71 -61 -62 -29 5 17 16 86 25 152 19 140 14 301 -14 437
l-18 86 49 -41 c27 -23 68 -57 90 -75z m-1244 -307 c240 -46 461 -160 643
-333 80 -76 193 -210 185 -218 -6 -6 -155 18 -230 37 -218 55 -409 162 -576
323 -75 73 -171 185 -171 200 0 11 66 6 149 -9z m1991 9 c0 -13 -102 -133
-172 -201 -203 -198 -452 -315 -766 -358 l-43 -5 17 28 c25 44 142 172 209
232 158 139 369 244 585 290 85 19 170 25 170 14z" />
    </g>
</svg>