<svg width="24" height="16" viewBox="0 0 24 16" fill="none" xmlns="http://www.w3.org/2000/svg">
<path d="M10 8.39084L10 14.5466C10 15.3405 9.2973 16 8.41892 16L1.60811 16C0.729729 16 -8.96015e-07 15.3405 -8.26611e-07 14.5466L-2.79272e-08 5.41069C2.32819e-07 2.42809 2.71351 3.16669e-07 6.01351 6.05165e-07L6.55406 6.5242e-07C6.88378 6.81246e-07 7.13514 0.227176 7.13514 0.525192L7.13514 2.38168C7.13514 2.67725 6.87027 2.91908 6.54054 2.91908C4.72703 2.91908 3.24324 4.26015 3.24324 5.89924L3.24324 6.96183L8.41892 6.96183C9.2973 6.96183 10 7.59695 10 8.39084Z" fill="#FCBA04"/>
<path d="M24 8.39084L24 14.5466C24 15.3405 23.2973 16 22.4189 16L15.6081 16C14.7297 16 14 15.3405 14 14.5466L14 5.41069C14 2.42809 16.7135 3.16669e-07 20.0135 6.05165e-07L20.5541 6.5242e-07C20.8838 6.81246e-07 21.1351 0.227176 21.1351 0.525192L21.1351 2.38168C21.1351 2.67725 20.8703 2.91908 20.5405 2.91908C18.727 2.91908 17.2432 4.26015 17.2432 5.89924L17.2432 6.96183L22.4189 6.96183C23.2973 6.96183 24 7.59695 24 8.39084Z" fill="#FCBA04"/>
</svg>
