<svg xmlns="http://www.w3.org/2000/svg" width="31" height="24" fill="none"><path d="M29.192 19.488c-2.736 2.448-5.304 3.672-7.704 3.672-1.728 0-3.168-.672-4.32-2.016-1.152-1.392-1.728-3.12-1.728-5.184 0-2.64.96-5.304 2.88-7.992 1.92-2.736 4.608-5.256 8.064-7.56l4.392 2.952.144 1.8a13.022 13.022 0 00-3.024 3.672c-.72 1.344-1.08 2.64-1.08 3.888 0 1.008.216 2.04.648 3.096.48 1.056 1.104 1.92 1.872 2.592l-.144 1.08zm-15.264 0c-2.736 2.448-5.304 3.672-7.704 3.672-1.728 0-3.168-.672-4.32-2.016C.752 19.752.176 18.024.176 15.96c0-2.64.96-5.304 2.88-7.992 1.92-2.736 4.608-5.256 8.064-7.56l4.392 2.952.144 1.8a13.022 13.022 0 00-3.024 3.672c-.72 1.344-1.08 2.64-1.08 3.888 0 1.008.216 2.04.648 3.096.48 1.056 1.104 1.92 1.872 2.592l-.144 1.08z" fill="#EB5757"/></svg>