<svg xmlns="http://www.w3.org/2000/svg" width="381.333" height="373.333" version="1.0" viewBox="0 0 286 280"><path d="M133.6 3.1c-49.1 4.9-92.2 35.5-113 80-14.3 30.7-16.9 67.2-7 99.9 4.9 16.1 18.2 40.7 23.4 43.3 1.3.7 3.9 3.7 5.7 6.9 4 6.8 13.6 15.8 25.7 23.9 15.2 10.2 29 16.3 46.4 20.5 10 2.4 11.5 2.5 35.1 2.2 24.2-.4 24.8-.5 35-3.6 5.7-1.7 13.7-4.7 17.6-6.7 3.9-1.9 7.6-3.5 8.2-3.5 2 0 18.6-11.1 26.4-17.5 24.7-20.7 41.8-50.8 47.5-84 2.1-11.5 1.4-41.7-1-51.5-7.3-29-19.1-50.7-38.1-69.6C215.9 14 174.2-1 133.6 3.1zm3.8 10.1c-2.7 4.7-10.6 14.2-15.8 19.1-20.1 19-40.4 29.7-66.8 35.1C47 69 40 69.5 40 68.4c0-1.2 9.1-12.2 15.1-18.3 19.2-19.4 44.4-32.2 72.4-36.6 10.6-1.7 10.7-1.7 9.9-.3zm35.1 1.4c23.9 4.5 46.8 16.6 64.8 34.2C244.8 56.1 254 67 254 68.6c0 1.1-12.9-.4-21.9-2.7-16.2-4.1-32-11.6-46.3-22.1-7.3-5.3-25.2-23.6-28.1-28.7l-1.8-3.1 4.3.5c2.4.4 7.9 1.3 12.3 2.1zm-21.6 11.6c1.7 4.6 3.8 10.5 4.6 13.3 6 20.7 5.9 50.2-.1 70.5-2.6 8.8-7.5 21-8.4 21-1.2 0-6.8-14.9-9.7-26-4.7-17.8-4.3-44.1.8-63.8 2.4-8.8 7.8-23.2 8.9-23.2.4 0 2.1 3.7 3.9 8.2zm-24.2 21.5c-2.7 12.4-2.7 41.1 0 53.5l1.9 8.6-7.6-6.2c-8.7-7.2-14.6-11.3-23.3-16.3-6.4-3.6-22.9-10.6-28.2-11.9-2.7-.7-2.3-.9 5.4-3.5 16.8-5.7 35.8-16.7 48.1-27.8 3-2.8 5.5-5 5.6-5.1 0 0-.9 3.9-1.9 8.7zm62.1 9.8c8.9 5.7 21.1 11.5 30.9 14.6l7.3 2.3-9.1 3.2c-16.1 5.8-33.6 15.7-43 24.4-2.4 2.3-5.5 5-6.9 6l-2.6 1.8 1.8-8.6c3.5-17.6 3.4-37-.5-55.8l-1.3-6.2 8 6.8c4.5 3.7 11.4 8.9 15.4 11.5zM56.1 82c30.3 6.2 58.6 23.8 77.1 48 4.8 6.2 4.9 6.5 2.6 6.9-2.4.3-6.7-.5-22.3-4-18.1-4.2-41.9-17.8-57.2-32.7-7.2-7-16.3-17.9-16.3-19.5 0-1.2 6-.7 16.1 1.3zM254 80.7c0 1.4-8.8 12.1-15.1 18.4-15.8 15.8-36.9 28-58.4 33.7-8.7 2.2-23.4 4.6-24.1 3.9-.9-.8 11.2-15.1 18.8-22.4 16.9-15.9 38.9-27.4 62.3-32.3 9.2-1.9 16.5-2.5 16.5-1.3zM37.5 102.5c3.5 9.7 4 12.3 5.5 28.8 1.7 19.3-1.6 40.6-9 59.4-1.8 4.6-3.6 8.1-4 7.8-.4-.2-1.5-2.6-2.5-5.2s-2.6-6.6-3.6-8.8C20.1 176 17 157.2 17 142c0-16.8 4.2-37.3 10.6-51.5l2.7-6 1.9 4.5c1.1 2.5 3.4 8.5 5.3 13.5zm229.9-9.6c1.4 3.6 3.2 7.2 4 8 .7.9 1.6 4.1 2 7.1.3 3 1.2 9.8 2.1 15 2.6 16.7 1.7 34.1-2.6 51.5-2 7.6-7.3 22.1-8.9 23.8-.4.5-2.2-2.8-3.9-7.3-12.7-32.9-12.8-65.1-.1-97.8 1.8-4.6 3.6-8 4-7.5.5.4 2 3.7 3.4 7.2zM70.1 123.6c9 5.9 23 12.7 31.7 15.5 3.9 1.3 7.2 2.5 7.2 2.8 0 .4-3.3 1.7-7.3 3-7.5 2.4-22.2 9.4-27.3 12.8-1.6 1.1-5.1 3.5-7.9 5.3-2.7 1.8-7.8 5.8-11.2 8.8-3.5 2.9-6.3 5-6.3 4.5 0-.4.8-4.2 1.7-8.3 2.4-10.5 2.4-41.5 0-52-.9-4.1-1.7-7.8-1.7-8.3 0-.4 3.3 2.1 7.3 5.4 3.9 3.4 10.2 8.1 13.8 10.5zm173.2-7.5c-2.5 11.9-2.5 40.1 0 51.8 1 4.6 1.6 8.5 1.4 8.7-.2.2-4.2-2.9-8.8-6.9-13.8-11.8-34.4-23-48.1-26.1-4.5-1-3.3-2.3 4.5-4.6 14.3-4.3 34.5-16.2 48.2-28.3 2.2-1.9 4.1-3.4 4.3-3.2.2.1-.5 4-1.5 8.6zm-105.7 31.7c-6.8 11.1-21.7 26-34.3 34.4-13 8.7-28.2 15.5-42 18.6-10.3 2.4-21.3 3.8-21.3 2.7 0-1.6 8.5-12.1 15.1-18.7 15.3-15.2 37.5-28.1 58.4-33.7 12.4-3.3 25.2-5.1 24.1-3.3zm38 2.2c30.4 7 57.2 24.5 75.8 49.3 1.6 2.1 2.6 4.1 2.2 4.4-1 1.1-16.2-1.4-26.1-4.3-11.3-3.2-26.8-10.5-37-17.4-11.7-7.9-28.5-24.7-33.9-33.8-1-1.7 7-.9 19 1.8zm-25 10.2c8.9 23.6 8.9 23.7 8.8 49.3 0 15.6-.4 20.6-2.1 28-2.2 9.5-9.1 28.5-10.3 28.5-.9 0-6.4-13.9-8.4-21.5-4-15.1-4.6-19.8-4.6-35.8 0-14.5.3-17.4 2.9-27.7 3.1-12.3 8.7-28 10.1-28 .4 0 2.1 3.3 3.6 7.2zm-23.8 22.5c-2.8 13.7-3.3 29.8-1.4 43.8.9 6.6 2 13.4 2.5 15.2.9 3.1.6 2.9-7.8-4.1-14.5-12-28.7-20-45.4-25.6l-8.1-2.7 6.9-2.1c15.5-4.7 34-15.4 50-28.9 2.7-2.3 5-4.3 5.1-4.3 0 0-.8 3.9-1.8 8.7zm51.5 2.1c10.6 8.8 31.7 19.7 45 23.3l4.2 1.1-10.5 3.7c-16 5.7-33.3 15.8-44 25.6-8.1 7.5-8 7.5-6.5.8 4-17.3 4.3-38.7.7-56.5l-1.8-8.6 3.8 3.1c2.1 1.8 6.2 5.1 9.1 7.5zM54.9 216.5c29.6 5.7 58.3 22.9 76.2 45.9 3.8 4.9 6.8 9.1 6.5 9.3-.3.3-3.8 0-7.8-.7-23.4-3.8-42.5-11.5-58.8-23.5-10.2-7.6-31-28.8-31-31.6 0-1.3 5.8-1.1 14.9.6zm199.1-.9c0 1.5-9.6 12.7-17.1 20-16.7 16.1-35.8 26.8-57.6 32.3-7.7 1.9-22.4 4.3-23 3.7-.7-.7 9.2-12.9 15.6-19.3 18.4-18.5 41.1-30.6 67.1-35.8 6.9-1.4 15-1.9 15-.9z"/></svg>